<?xml version="1.0" encoding="UTF-8" standalone="no"?>
<!-- Generator: Adobe Illustrator 19.0.0, SVG Export Plug-In . SVG Version: 6.00 Build 0)  -->

<svg
   version="1.1"
   id="Layer_1"
   x="0px"
   y="0px"
   viewBox="0 0 670 670"
   xml:space="preserve"
   sodipodi:docname="onion-CoA.svg"
   width="670"
   height="670"
   inkscape:version="1.1.2 (0a00cf5339, 2022-02-04)"
   inkscape:export-filename="/home/warx/Documents/onion-CoA.png"
   inkscape:export-xdpi="116"
   inkscape:export-ydpi="116"
   xmlns:inkscape="http://www.inkscape.org/namespaces/inkscape"
   xmlns:sodipodi="http://sodipodi.sourceforge.net/DTD/sodipodi-0.dtd"
   xmlns="http://www.w3.org/2000/svg"
   xmlns:svg="http://www.w3.org/2000/svg"><defs
   id="defs427" /><sodipodi:namedview
   id="namedview425"
   pagecolor="#ffffff"
   bordercolor="#666666"
   borderopacity="1.0"
   inkscape:pageshadow="2"
   inkscape:pageopacity="0.0"
   inkscape:pagecheckerboard="0"
   showgrid="false"
   lock-margins="true"
   fit-margin-top="10"
   fit-margin-left="10"
   fit-margin-right="10"
   fit-margin-bottom="10"
   inkscape:zoom="0.8180949"
   inkscape:cx="71.507596"
   inkscape:cy="61.72878"
   inkscape:window-width="1846"
   inkscape:window-height="1016"
   inkscape:window-x="74"
   inkscape:window-y="1107"
   inkscape:window-maximized="1"
   inkscape:current-layer="Layer_1" />






















<g
   id="g394"
   transform="translate(39.432031,38.498047)">
</g>
<g
   id="g396"
   transform="translate(39.432031,38.498047)">
</g>
<g
   id="g398"
   transform="translate(39.432031,38.498047)">
</g>
<g
   id="g400"
   transform="translate(39.432031,38.498047)">
</g>
<g
   id="g402"
   transform="translate(39.432031,38.498047)">
</g>
<g
   id="g404"
   transform="translate(39.432031,38.498047)">
</g>
<g
   id="g406"
   transform="translate(39.432031,38.498047)">
</g>
<g
   id="g408"
   transform="translate(39.432031,38.498047)">
</g>
<g
   id="g410"
   transform="translate(39.432031,38.498047)">
</g>
<g
   id="g412"
   transform="translate(39.432031,38.498047)">
</g>
<g
   id="g414"
   transform="translate(39.432031,38.498047)">
</g>
<g
   id="g416"
   transform="translate(39.432031,38.498047)">
</g>
<g
   id="g418"
   transform="translate(39.432031,38.498047)">
</g>
<g
   id="g420"
   transform="translate(39.432031,38.498047)">
</g>
<g
   id="g422"
   transform="translate(39.432031,38.498047)">
</g>
<g
   id="g2347"
   transform="translate(77.665523,38.601003)"><path
     id="use1449"
     style="fill:#ffffff;stroke:#000000;stroke-width:10;stroke-linecap:butt;stroke-linejoin:miter;stroke-miterlimit:4;stroke-dasharray:none;stroke-opacity:1"
     d="m 539.08174,346.32613 c -0.67161,-195.00866 0,-369.823242 0,-369.823242 H -24.412785 c 0,0 0.671615,174.814582 0,369.823242 -0.671615,195.00866 276.688805,191.79531 281.747265,274.66527 5.0585,-82.86996 282.41888,-79.65661 281.74726,-274.66527 z"
     sodipodi:nodetypes="sccscs" /><path
     id="rect1862"
     style="fill:#ff0000;stroke:#000000;stroke-width:10;stroke-miterlimit:4;stroke-dasharray:none"
     d="m -24.412109,-23.498047 c 0,0 0.164682,47.448182 0.246093,118.662109 L 367.32422,540.91602 C 414.55049,519.93925 466.44,494.94692 500.75977,454.28125 L 81.138672,-23.498047 Z" /><g
     id="g1788"
     transform="translate(1.3344728)"><path
       style="fill:#ce93d8"
       d="m 257.642,506.4 c -0.4,0 -0.8,0 -1.2,0 0.4,0 0.8,0 1.2,0 z"
       id="path342" /><g
       id="g352">
	<path
   style="fill:#7cb342"
   d="m 276.442,143.2 c 0,-2 0,-4 -0.4,-5.6 h 3.2 c -0.8,2 -2,4 -2.8,5.6 z"
   id="path344" />
	<path
   style="fill:#7cb342"
   d="m 386.442,37.2 c -36.8,3.2 -80.8,50.8 -107.2,102.8 -1.2,0 -2,4.8 -2.8,6.8 -9.6,19.2 -16.4,38.8 -19.6,57.6 h -0.4 l -0.4,2.4 c 0,0 0.4,0 0.4,0.4 0,0.4 0,0.4 0,0.8 v 0 l 2,0.4 c 11.2,6.8 20.4,20.4 24,27.6 h 2.8 c 4.4,-11.2 10,-18.4 16,-22.8 h 1.6 c 0,-0.4 0,-1.2 0.4,-1.6 2,-1.2 3.6,-2.4 5.6,-3.2 v -17.2 c 22.8,-89.2 91.6,-155.2 77.6,-154 z"
   id="path346" />
	<path
   style="fill:#7cb342"
   d="m 276.442,145.6 v 0 0 c 0,-2 0,-5.6 -0.4,-5.6 -4,-80 -12.4,-133.6 -20.8,-133.6 -8.4,0 -16.8,53.6 -20.8,133.6 0,0 0.8,3.2 0.8,5.6 v 1.2 h -1.2 c 0,0.4 0.4,0.4 0.4,0.8 h -0.4 0.4 c 9.2,19.6 16,39.2 19.2,57.2 l 0.4,2.4 c 0.4,-0.4 0.8,0.4 1.6,0.4 v 0 h 0.4 c 3.2,-19.6 10.4,-41.6 20.4,-62 z"
   id="path348" />
	<path
   style="fill:#7cb342"
   d="m 230.442,140 h 4.4 c 0,0 -0.4,5.2 -0.4,8 -1.6,-2.8 -2.8,-8 -4,-8 z"
   id="path350" />
</g><path
       style="fill:#ce93d8"
       d="m 432.042,363.6 c -14.8,-52 -136,-125.2 -115.6,-159.6 0,0 -4.8,0.8 -8.8,4.4 -8,4.4 -17.2,11.6 -23.2,27.6 -0.4,0 -0.8,1.6 -1.2,2.8 0,0 -0.4,-2.8 -1.6,-2.8 -3.6,-8 -14,-24 -26,-28 v 0 c -0.4,0 -0.8,0.4 -1.6,0.8 -11.6,6.8 -21.2,19.2 -24.8,27.2 -1.2,0 -1.6,2.8 -1.6,2.8 -0.4,-0.8 -0.8,-2.8 -1.2,-2.8 -7.2,-20 -19.2,-26 -23.2,-29.6 -4,-2 -7.2,-2 -7.2,-2 20.4,34.4 -102.4,107.2 -117.2,159.2 -24.8,86.4 68.4,143.6 176.8,143.6 l -0.8,0.8 v 0 c 0.4,0 0.4,0 0.4,0 h 0.4 c 0.4,0 0.8,0 1.2,0 v 0 c 0.4,0 0.4,0 0.8,0 108,0 199.2,-58.8 174.4,-144.4 z"
       id="path354" /><path
       style="fill:#7cb342"
       d="m 254.442,204.8 h -0.8 c -3.2,-18 -10,-37.2 -19.2,-56.8 h 1.2 v -2.4 c 0,-2.8 -4,-5.6 -5.2,-5.6 -26.4,-52 -68.8,-99.6 -105.2,-102.8 -13.6,-1.2 50.8,61.2 78.8,147.2 v 22.4 c 4,3.2 16,9.6 23.2,29.6 h 2.8 c 3.6,-8 13.6,-21.6 24.8,-28.4 z"
       id="path356" /><path
       d="m 208.442,213.6 c -2,0 -3.6,-1.2 -4,-3.2 -1.6,-8 -3.6,-16.4 -6.4,-24.8 -16.4,-52.4 -46.8,-96.4 -65.2,-122.8 -13.6,-19.2 -16.4,-24 -14,-28.4 0.4,-0.8 2,-2.8 5.6,-2.4 40.4,3.6 84.4,54.8 109.6,104 1.6,2.8 2.8,5.6 4,8.4 0.8,2 0,4.4 -2,5.2 -2,0.8 -4.4,0 -5.2,-2 -1.2,-2.8 -2.4,-5.2 -4,-8 -27.6,-53.6 -67.6,-93.2 -99.2,-99.2 2.4,4 7.2,11.2 12,17.6 18.4,26.8 49.6,71.2 66,124.8 2.8,8.8 4.8,17.2 6.4,25.6 0.4,2 -0.8,4.4 -3.2,4.8 0,0.4 -0.4,0.4 -0.4,0.4 z"
       id="path358" /><path
       d="m 253.642,208.8 c -2,0 -3.6,-1.6 -4,-3.2 -2.8,-17.2 -9.2,-37.2 -19.2,-57.6 -0.8,-2 0,-4.4 2,-5.2 2,-0.8 4.4,0 5.2,2 10,21.2 16.8,42 19.6,60 0.4,2 -1.2,4.4 -3.2,4.4 0,-0.4 0,-0.4 -0.4,-0.4 z"
       id="path360" /><path
       d="m 300.842,215.2 c -0.4,0 -0.4,0 -0.8,0 -2,-0.4 -3.6,-2.4 -3.2,-4.8 1.2,-6.8 2.8,-13.6 4.8,-20.4 16,-56.8 48.4,-103.6 68,-131.6 4.8,-6.8 9.6,-13.6 12,-17.6 -31.2,5.6 -71.6,45.6 -99.2,98.8 -1.2,2 -2,3.6 -2.8,5.6 -10,20.8 -17.2,41.2 -20,59.2 -0.4,2 -2.4,3.6 -4.8,3.2 -2,-0.4 -3.6,-2.4 -3.2,-4.8 3.2,-18.8 10.4,-40 20.8,-61.6 0.8,-2 2,-4 2.8,-6 25.2,-49.2 69.2,-100.4 109.6,-103.6 3.6,-0.4 4.8,1.6 5.6,2.4 2.4,4.4 -0.8,8.8 -14,28.4 -19.2,27.6 -51.2,74 -66.8,129.2 -2,6.4 -3.6,13.2 -4.8,19.6 -0.4,2.8 -2,4 -4,4 z"
       id="path362" /><path
       d="m 235.642,152 c -2.4,0 -4,-1.6 -4,-4 v -2.4 c 0,-1.2 0,-2 0,-3.2 0,-1.6 -0.4,-3.2 0,-5.2 2,-38.8 4.8,-72 8.4,-96.4 5.6,-37.6 11.2,-40.8 15.6,-40.8 4.8,0 10,3.2 16,40.8 3.6,24 6.8,58.4 8.8,96.4 0,1.2 0,2 0,3.2 0,0.8 0,1.6 0,2.4 0,2.4 -1.6,4 -4,4 -2,0 -4,-1.6 -4,-4 0,-0.8 0,-2 0,-2.8 0,-0.8 0,-2 0,-2.8 -4,-82 -12,-120.8 -16.4,-128.8 -4.4,8 -12.4,46.8 -16.4,128.8 0,1.2 0,2.8 0,4 0,1.2 0,2.4 0,3.6 v 2.4 c 0,3.2 -1.6,4.8 -4,4.8 z"
       id="path364" /><path
       d="m 256.042,510.4 v 0 c -72.4,0 -136,-24.8 -166,-64.8 -18.4,-24.4 -23.2,-53.2 -14.4,-83.6 7.2,-24.8 36,-52.8 64.4,-80 30.4,-29.6 62,-60 52.4,-76 -0.8,-1.2 -0.8,-3.2 0.4,-4.4 0.8,-1.2 2.4,-2 4,-1.6 0.4,0 3.2,0.8 7.2,2.8 6,3.2 17.2,10 24.8,25.2 4.4,-6.8 13.2,-18 23.6,-24 0.8,-0.4 2.4,-1.2 4.4,0 h 0.4 c 11.2,3.6 20.4,16.4 25.6,24.4 6.4,-12.4 14.8,-19.6 21.2,-23.6 6,-4 10.8,-5.2 11.2,-5.2 1.6,-0.4 3.2,0 4,1.6 0.8,1.2 1.2,3.2 0.4,4.4 -9.6,16 22,46.4 52.4,76 28,27.2 57.2,55.2 64.4,80 8.8,30.4 3.6,59.2 -14.4,83.2 -29.2,39.6 -92,64.4 -163.2,65.2 -0.4,0 -0.8,0 -0.8,0 -0.8,0.4 -1.6,0.4 -2,0.4 z m -54,-299.2 c 1.6,20.4 -25.6,46.8 -56.8,76.8 -27.2,26.4 -55.6,53.6 -62,76.4 -8,28.4 -3.6,54 13.2,76.8 28.4,38 89.6,61.6 159.6,61.6 0.4,0 0.8,0 0.8,0 0.4,0 0.8,-0.4 1.6,-0.4 68.8,-0.8 128.8,-24.4 156.8,-62 16.8,-22.4 21.2,-48 13.2,-76.4 -6.4,-22.4 -34.8,-50 -62,-76.4 -30.8,-30 -58,-56.4 -56.8,-76.8 -0.4,0.4 -0.8,0.4 -1.6,0.8 -6,3.6 -14,10.8 -20,23.6 l -1.2,2.4 c -0.4,1.2 -1.6,2 -2.4,2.4 -1.2,0.4 -4,0.4 -6,-3.2 -8.4,-14 -16.4,-22.4 -23.6,-25.2 v 0 c -10.8,6.8 -19.6,20.4 -22,24.4 -1.2,2 -1.6,2.8 -1.6,2.8 -0.8,1.2 -2.4,1.6 -3.6,1.6 -1.6,0 -2.8,-1.2 -3.2,-2.4 l -0.4,-0.8 c -0.4,-0.8 -0.4,-1.2 -0.8,-1.6 -6.4,-14 -15.6,-21.2 -21.2,-24.4 z"
       id="path366" /><path
       d="m 257.642,509.6 c -1.2,0 -2,-0.4 -2.8,-1.2 -0.8,-0.8 -1.2,-1.6 -1.2,-2.8 0,-1.2 0.4,-2 1.2,-2.8 1.6,-1.6 4,-1.6 5.6,0 0.8,0.8 1.2,1.6 1.2,2.8 0,1.2 -0.4,2 -1.2,2.8 -0.8,0.8 -1.6,1.2 -2.8,1.2 z"
       id="path368" /><path
       d="m 255.642,512 h -0.4 c -42.8,0 -81.6,-17.2 -106,-47.2 -22.8,-27.6 -30.4,-62.8 -22.4,-101.6 2.4,-11.6 8.4,-25.2 18.8,-41.6 1.2,-2 3.6,-2.4 5.6,-1.2 2,1.2 2.4,3.6 1.2,5.6 -9.6,15.2 -15.6,28.4 -17.6,39.2 -7.6,36.4 0,69.2 20.8,94.8 22.8,28 59.2,44 100,44 h 0.4 c 2.4,0 4,1.6 4,4 0,2.4 -2,4 -4.4,4 z"
       id="path370" /><path
       d="m 163.242,305.2 c -0.8,0 -1.6,-0.4 -2.4,-0.8 -1.6,-1.2 -2.4,-3.6 -0.8,-5.6 4,-5.6 8,-11.2 12,-16.8 10.4,-14 20.4,-27.6 27.6,-40 1.2,-2 3.6,-2.4 5.6,-1.6 2,1.2 2.4,3.6 1.6,5.6 -7.6,12.8 -17.2,26.4 -28,40.8 -4,5.6 -8,11.2 -12,16.8 -1.2,0.8 -2.4,1.6 -3.6,1.6 z"
       id="path372" /><path
       d="m 368.442,336.4 c -1.2,0 -2.8,-0.8 -3.6,-2 -8.8,-15.2 -20.4,-31.6 -32,-47.2 -6,-8.4 -12,-16.4 -17.2,-24 -1.2,-2 -0.8,-4.4 1.2,-5.6 2,-1.2 4.4,-0.8 5.6,1.2 5.2,7.6 11.2,15.6 17.2,24 11.6,16 23.6,32.4 32.8,48.4 1.2,2 0.4,4.4 -1.6,5.6 -0.8,-0.4 -1.6,-0.4 -2.4,-0.4 z"
       id="path374" /><path
       d="m 259.642,512 h -1.2 c -2.4,0 -4,-1.6 -4,-4 0,-2.4 1.6,-4 4,-4 39.2,0 76,-16.4 98.8,-44 21.2,-26 28.4,-58.4 20.8,-94.8 -0.4,-2 0.8,-4.4 3.2,-4.8 2,-0.4 4.4,0.8 4.8,3.2 7.6,38 -0.4,74 -22.8,101.2 -23.6,29.2 -62.4,46.8 -103.6,47.2 z"
       id="path376" /><path
       d="m 256.442,510.4 c -2.4,0 -4,-1.6 -4,-4 0,-2.4 2,-4 4.4,-4 0,0 0,0 0.4,0 2,-0.4 4,1.2 4.4,3.6 0.4,2 -1.2,4 -3.2,4.4 -0.8,0 -1.2,0 -2,0 z"
       id="path378" /><path
       d="m 255.242,510.4 c -2.4,0 -4,-1.6 -4,-4 0,-2.4 1.6,-4 4,-4 v 0 c 2.4,0 4,1.6 4,4 0,2.4 -1.6,4 -4,4 z"
       id="path380" /><path
       d="m 210.842,483.2 c -1.2,0 -2.4,-0.4 -3.2,-1.6 -18.8,-26.8 -27.2,-68.8 -22.8,-114.8 0.4,-2 2,-4 4.4,-3.6 2,0.4 4,2 3.6,4.4 -4,44.4 3.6,84.4 21.6,109.6 1.2,2 0.8,4.4 -0.8,5.6 -1.2,0.4 -2,0.4 -2.8,0.4 z"
       id="path382" /><path
       d="m 196.842,332.4 c -0.4,0 -0.8,0 -1.2,0 -2,-0.8 -3.2,-2.8 -2.8,-5.2 4.4,-14.4 10.4,-29.6 16,-44 7.2,-18.4 13.6,-35.6 17.6,-50.4 0,-0.4 0.4,-0.8 0.4,-1.2 v -0.8 c 0.4,-2 2.8,-3.6 4.8,-2.8 2,0.4 3.6,2.8 2.8,4.8 v 0.4 c 0,0.4 -0.4,0.8 -0.4,1.6 -4,15.2 -10.8,32.8 -18,51.2 -5.6,14.4 -11.6,29.6 -16,43.6 0.4,2 -1.2,2.8 -3.2,2.8 z"
       id="path384" /><path
       d="m 321.242,426.8 c 0,0 -0.4,0 -0.8,0 -2,-0.4 -3.6,-2.4 -3.2,-4.4 2.8,-18.4 3.2,-38 0.8,-58.8 -2.4,-23.2 -13.2,-50.4 -23.6,-77.2 -7.2,-18.4 -14,-36 -18,-51.6 -0.4,-0.8 -0.4,-2 -0.8,-2.8 -0.4,-2 0.8,-4.4 3.2,-4.8 2,-0.4 4.4,0.8 4.8,3.2 0,0.8 0.4,2 0.8,2.8 3.6,15.2 10.4,32.4 17.6,50.4 10.4,27.2 21.6,55.2 24,79.2 2.4,21.6 2,42 -0.8,60.8 -0.4,1.6 -2,3.2 -4,3.2 z"
       id="path386" /><path
       d="m 257.642,512 h -1.6 c -2.4,0 -4,-1.6 -4,-4 0,-2.4 1.6,-4 4,-4 h 2 c 20,0 39.2,-17.2 50.8,-46 0.8,-2 3.2,-3.2 5.2,-2.4 2,0.8 3.2,3.2 2.4,5.2 -13.6,32 -35.2,51.2 -58.8,51.2 z"
       id="path388" /><path
       d="m 255.642,372 c -2.4,0 -4,-1.6 -4,-4 V 248 c 0,-2.4 1.6,-4 4,-4 2.4,0 4,1.6 4,4 v 120 c 0,2.4 -1.6,4 -4,4 z"
       id="path390" /><path
       d="m 255.642,512 c -2.4,0 -4,-1.6 -4,-4 v -96 c 0,-2.4 1.6,-4 4,-4 2.4,0 4,1.6 4,4 v 96 c 0,2.4 -1.6,4 -4,4 z"
       id="path392" /></g></g></svg>
